Urbanist-Italic.ufo
<glyph name="percent" format="2">
  <advance width="1303.75"/>
  <unicode hex="0025"/>
  <outline>
    <contour>
      <point x="89" y="0" type="line"/>
      <point x="265" y="0" type="line"/>
      <point x="1270" y="1400" type="line"/>
      <point x="1093" y="1400" type="line"/>
    </contour>
    <contour>
      <point x="383" y="848" type="curve"/>
      <point x="511" y="848"/>
      <point x="633" y="950"/>
      <point x="652" y="1084" type="curve"/>
      <point x="672" y="1224"/>
      <point x="573" y="1338"/>
      <point x="435" y="1338" type="curve"/>
      <point x="306" y="1338"/>
      <point x="183" y="1235"/>
      <point x="165" y="1100" type="curve"/>
      <point x="145" y="960"/>
      <point x="244" y="848"/>
    </contour>
    <contour>
      <point x="381" y="960" type="curve"/>
      <point x="312" y="960"/>
      <point x="265" y="1015"/>
      <point x="275" y="1084" type="curve"/>
      <point x="285" y="1162"/>
      <point x="358" y="1225"/>
      <point x="436" y="1225" type="curve"/>
      <point x="505" y="1225"/>
      <point x="552" y="1170"/>
      <point x="542" y="1100" type="curve"/>
      <point x="531" y="1024"/>
      <point x="459" y="960"/>
    </contour>
    <contour>
      <point x="925" y="62" type="curve"/>
      <point x="1056" y="62"/>
      <point x="1177" y="169"/>
      <point x="1196" y="299" type="curve"/>
      <point x="1215" y="435"/>
      <point x="1120" y="553"/>
      <point x="978" y="553" type="curve"/>
      <point x="849" y="553"/>
      <point x="726" y="449"/>
      <point x="707" y="316" type="curve"/>
      <point x="687" y="180"/>
      <point x="785" y="62"/>
    </contour>
    <contour>
      <point x="924" y="174" type="curve"/>
      <point x="856" y="174"/>
      <point x="807" y="230"/>
      <point x="817" y="299" type="curve"/>
      <point x="828" y="376"/>
      <point x="901" y="440"/>
      <point x="978" y="440" type="curve"/>
      <point x="1047" y="440"/>
      <point x="1095" y="384"/>
      <point x="1085" y="316" type="curve"/>
      <point x="1075" y="238"/>
      <point x="1002" y="174"/>
    </contour>
  </outline>
</glyph>
<glyph name="ampersand" format="2">
  <advance width="1418"/>
  <unicode hex="0026"/>
  <outline>
    <contour>
      <point x="422" y="-26" type="curve" smooth="yes"/>
      <point x="592" y="-26"/>
      <point x="647" y="24"/>
      <point x="928" y="271" type="curve"/>
      <point x="1165" y="0" type="line"/>
      <point x="1283" y="106" type="line"/>
      <point x="1045" y="381" type="line"/>
      <point x="1183" y="500" type="line"/>
      <point x="1209" y="711" type="line"/>
      <point x="953" y="489" type="line"/>
      <point x="645" y="849" type="line"/>
      <point x="805" y="987"/>
      <point x="848" y="1028"/>
      <point x="863" y="1140" type="curve" smooth="yes"/>
      <point x="886" y="1303"/>
      <point x="771" y="1434"/>
      <point x="611" y="1434" type="curve" smooth="yes"/>
      <point x="461" y="1434"/>
      <point x="318" y="1313"/>
      <point x="296" y="1156" type="curve" smooth="yes"/>
      <point x="280" y="1040"/>
      <point x="312" y="999"/>
      <point x="432" y="857" type="curve"/>
      <point x="152" y="611"/>
      <point x="89" y="560"/>
      <point x="65" y="391" type="curve" smooth="yes"/>
      <point x="34" y="174"/>
      <point x="179" y="-26"/>
    </contour>
    <contour>
      <point x="426" y="124" type="curve" smooth="yes"/>
      <point x="290" y="124"/>
      <point x="194" y="232"/>
      <point x="214" y="372" type="curve" smooth="yes"/>
      <point x="231" y="502"/>
      <point x="279" y="526"/>
      <point x="525" y="743" type="curve"/>
      <point x="834" y="385" type="line"/>
      <point x="594" y="174"/>
      <point x="559" y="124"/>
    </contour>
    <contour>
      <point x="543" y="940" type="curve"/>
      <point x="445" y="1056"/>
      <point x="419" y="1071"/>
      <point x="429" y="1142" type="curve" smooth="yes"/>
      <point x="441" y="1226"/>
      <point x="520" y="1300"/>
      <point x="609" y="1300" type="curve" smooth="yes"/>
      <point x="683" y="1300"/>
      <point x="742" y="1241"/>
      <point x="730" y="1158" type="curve" smooth="yes"/>
      <point x="719" y="1081"/>
      <point x="689" y="1066"/>
    </contour>
  </outline>
</glyph>
<glyph name="parenright" format="2">
  <advance width="653.75"/>
  <unicode hex="0029"/>
  <outline>
    <contour>
      <point x="12" y="-109" type="curve"/>
      <point x="167" y="-115" type="line"/>
      <point x="396" y="75"/>
      <point x="512" y="346"/>
      <point x="553" y="636" type="curve" smooth="yes"/>
      <point x="590" y="905"/>
      <point x="538" y="1267"/>
      <point x="372" y="1398" type="curve"/>
      <point x="230" y="1402" type="line"/>
      <point x="374" y="1246"/>
      <point x="437" y="931"/>
      <point x="406" y="652" type="curve"/>
      <point x="353" y="334"/>
      <point x="203" y="72"/>
    </contour>
  </outline>
</glyph>
<glyph name="two" format="2">
  <advance width="1094.5"/>
  <unicode hex="0032"/>
  <outline>
    <contour>
      <point x="10" y="0" type="line"/>
      <point x="905" y="0" type="line"/>
      <point x="925" y="150" type="line"/>
      <point x="302" y="147" type="line"/>
      <point x="611" y="403"/>
      <point x="990" y="753"/>
      <point x="1022" y="986" type="curve" smooth="yes"/>
      <point x="1057" y="1228"/>
      <point x="887" y="1426"/>
      <point x="647" y="1426" type="curve" smooth="yes"/>
      <point x="416" y="1426"/>
      <point x="198" y="1239"/>
      <point x="164" y="998" type="curve"/>
      <point x="314" y="990" type="line"/>
      <point x="335" y="1144"/>
      <point x="484" y="1276"/>
      <point x="643" y="1276" type="curve" smooth="yes"/>
      <point x="793" y="1276"/>
      <point x="896" y="1153"/>
      <point x="875" y="1002" type="curve" smooth="yes"/>
      <point x="844" y="783"/>
      <point x="329" y="379"/>
      <point x="25" y="135" type="curve"/>
    </contour>
  </outline>
</glyph>
<glyph name="three" format="2">
  <advance width="986.5"/>
  <unicode hex="0033"/>
  <outline>
    <contour>
      <point x="428" y="-26" type="curve" smooth="yes"/>
      <point x="655" y="-26"/>
      <point x="879" y="159"/>
      <point x="911" y="387" type="curve" smooth="yes"/>
      <point x="933" y="546"/>
      <point x="868" y="686"/>
      <point x="727" y="737" type="curve"/>
      <point x="854" y="783"/>
      <point x="941" y="900"/>
      <point x="959" y="1032" type="curve" smooth="yes"/>
      <point x="990" y="1249"/>
      <point x="822" y="1427"/>
      <point x="607" y="1427" type="curve" smooth="yes"/>
      <point x="396" y="1427"/>
      <point x="183" y="1257"/>
      <point x="153" y="1044" type="curve"/>
      <point x="302" y="1036" type="line"/>
      <point x="320" y="1165"/>
      <point x="468" y="1277"/>
      <point x="604" y="1277" type="curve" smooth="yes"/>
      <point x="729" y="1277"/>
      <point x="830" y="1174"/>
      <point x="812" y="1048" type="curve" smooth="yes"/>
      <point x="789" y="884"/>
      <point x="644" y="796"/>
      <point x="449" y="796" type="curve"/>
      <point x="440" y="673" type="line"/>
      <point x="652" y="673"/>
      <point x="788" y="585"/>
      <point x="763" y="403" type="curve" smooth="yes"/>
      <point x="742" y="250"/>
      <point x="584" y="124"/>
      <point x="432" y="124" type="curve" smooth="yes"/>
      <point x="262" y="124"/>
      <point x="173" y="241"/>
      <point x="194" y="391" type="curve"/>
      <point x="46" y="399" type="line"/>
      <point x="13" y="167"/>
      <point x="168" y="-26"/>
    </contour>
  </outline>
</glyph>
<glyph name="five" format="2">
  <advance width="1110.75"/>
  <unicode hex="0035"/>
  <outline>
    <contour>
      <point x="465" y="-26" type="curve" smooth="yes"/>
      <point x="714" y="-26"/>
      <point x="946" y="177"/>
      <point x="981" y="426" type="curve" smooth="yes"/>
      <point x="1018" y="697"/>
      <point x="844" y="891"/>
      <point x="560" y="896" type="curve" smooth="yes"/>
      <point x="408" y="896" type="line"/>
      <point x="528" y="1250" type="line"/>
      <point x="1064" y="1250" type="line"/>
      <point x="1085" y="1400" type="line"/>
      <point x="426" y="1400" type="line"/>
      <point x="201" y="746" type="line"/>
      <point x="548" y="746" type="line" smooth="yes"/>
      <point x="754" y="746"/>
      <point x="856" y="609"/>
      <point x="833" y="442" type="curve" smooth="yes"/>
      <point x="808" y="267"/>
      <point x="644" y="124"/>
      <point x="469" y="124" type="curve" smooth="yes"/>
      <point x="302" y="124"/>
      <point x="186" y="259"/>
      <point x="210" y="430" type="curve"/>
      <point x="61" y="438" type="line"/>
      <point x="26" y="187"/>
      <point x="203" y="-26"/>
    </contour>
  </outline>
</glyph>
<glyph name="question" format="2">
  <advance width="1012.75"/>
  <unicode hex="003F"/>
  <outline>
    <contour>
      <point x="422" y="481" type="curve"/>
      <point x="571" y="472" type="line"/>
      <point x="582" y="551"/>
      <point x="637" y="622"/>
      <point x="714" y="656" type="curve" smooth="yes"/>
      <point x="850" y="728"/>
      <point x="944" y="864"/>
      <point x="965" y="1013" type="curve" smooth="yes"/>
      <point x="997" y="1241"/>
      <point x="837" y="1427"/>
      <point x="608" y="1427" type="curve" smooth="yes"/>
      <point x="389" y="1427"/>
      <point x="185" y="1249"/>
      <point x="154" y="1025" type="curve"/>
      <point x="303" y="1017" type="line"/>
      <point x="323" y="1159"/>
      <point x="458" y="1277"/>
      <point x="603" y="1277" type="curve" smooth="yes"/>
      <point x="741" y="1277"/>
      <point x="836" y="1168"/>
      <point x="817" y="1029" type="curve" smooth="yes"/>
      <point x="803" y="927"/>
      <point x="738" y="838"/>
      <point x="648" y="798" type="curve" smooth="yes"/>
      <point x="525" y="731"/>
      <point x="441" y="614"/>
    </contour>
    <contour>
      <point x="431" y="-26" type="curve" smooth="yes"/>
      <point x="474" y="-26"/>
      <point x="512" y="8"/>
      <point x="518" y="52" type="curve" smooth="yes"/>
      <point x="526" y="101"/>
      <point x="490" y="143"/>
      <point x="438" y="143" type="curve" smooth="yes"/>
      <point x="396" y="143"/>
      <point x="358" y="110"/>
      <point x="353" y="68" type="curve" smooth="yes"/>
      <point x="345" y="17"/>
      <point x="381" y="-26"/>
    </contour>
  </outline>
</glyph>
<glyph name="B" format="2">
  <advance width="1121"/>
  <unicode hex="0042"/>
  <outline>
    <contour>
      <point x="50" y="0" type="line"/>
      <point x="591" y="0" type="line" smooth="yes"/>
      <point x="802" y="0"/>
      <point x="992" y="155"/>
      <point x="1025" y="386" type="curve" smooth="yes"/>
      <point x="1047" y="539"/>
      <point x="1001" y="727"/>
      <point x="844" y="769" type="curve"/>
      <point x="938" y="796"/>
      <point x="1026" y="913"/>
      <point x="1043" y="1035" type="curve" smooth="yes"/>
      <point x="1075" y="1265"/>
      <point x="925" y="1399"/>
      <point x="719" y="1399" type="curve" smooth="yes"/>
      <point x="246" y="1399" type="line"/>
    </contour>
    <contour>
      <point x="218" y="133" type="line"/>
      <point x="298" y="697" type="line"/>
      <point x="677" y="697" type="line" smooth="yes"/>
      <point x="820" y="697"/>
      <point x="913" y="567"/>
      <point x="893" y="426" type="curve" smooth="yes"/>
      <point x="870" y="258"/>
      <point x="732" y="133"/>
      <point x="590" y="133" type="curve" smooth="yes"/>
    </contour>
    <contour>
      <point x="316" y="828" type="line"/>
      <point x="378" y="1265" type="line"/>
      <point x="694" y="1265" type="line" smooth="yes"/>
      <point x="823" y="1265"/>
      <point x="916" y="1197"/>
      <point x="895" y="1052" type="curve" smooth="yes"/>
      <point x="875" y="911"/>
      <point x="753" y="828"/>
      <point x="624" y="828" type="curve" smooth="yes"/>
    </contour>
  </outline>
</glyph>
<glyph name="D" format="2">
  <advance width="1342.75"/>
  <unicode hex="0044"/>
  <outline>
    <contour>
      <point x="50" y="0" type="line"/>
      <point x="516" y="0" type="line" smooth="yes"/>
      <point x="904" y="0"/>
      <point x="1256" y="310"/>
      <point x="1310" y="692" type="curve" smooth="yes"/>
      <point x="1364" y="1082"/>
      <point x="1092" y="1400"/>
      <point x="705" y="1400" type="curve" smooth="yes"/>
      <point x="246" y="1400" type="line"/>
    </contour>
    <contour>
      <point x="221" y="150" type="line"/>
      <point x="375" y="1250" type="line"/>
      <point x="693" y="1250" type="line" smooth="yes"/>
      <point x="996" y="1250"/>
      <point x="1204" y="1008"/>
      <point x="1162" y="708" type="curve" smooth="yes"/>
      <point x="1119" y="400"/>
      <point x="833" y="150"/>
      <point x="529" y="150" type="curve" smooth="yes"/>
    </contour>
  </outline>
</glyph>
<glyph name="E" format="2">
  <advance width="1074.5"/>
  <unicode hex="0045"/>
  <outline>
    <contour>
      <point x="50" y="0" type="line"/>
      <point x="905" y="0" type="line"/>
      <point x="925" y="150" type="line"/>
      <point x="221" y="150" type="line"/>
      <point x="295" y="675" type="line"/>
      <point x="876" y="675" type="line"/>
      <point x="896" y="825" type="line"/>
      <point x="315" y="825" type="line"/>
      <point x="375" y="1250" type="line"/>
      <point x="1080" y="1250" type="line"/>
      <point x="1101" y="1400" type="line"/>
      <point x="246" y="1400" type="line"/>
    </contour>
  </outline>
</glyph>
<glyph name="F" format="2">
  <advance width="959.5"/>
  <unicode hex="0046"/>
  <outline>
    <contour>
      <point x="50" y="0" type="line"/>
      <point x="200" y="0" type="line"/>
      <point x="295" y="675" type="line"/>
      <point x="868" y="675" type="line"/>
      <point x="889" y="825" type="line"/>
      <point x="315" y="825" type="line"/>
      <point x="375" y="1250" type="line"/>
      <point x="1045" y="1250" type="line"/>
      <point x="1066" y="1400" type="line"/>
      <point x="246" y="1400" type="line"/>
    </contour>
  </outline>
</glyph>
<glyph name="J" format="2">
  <advance width="811.5"/>
  <unicode hex="004A"/>
  <outline>
    <contour>
      <point x="228" y="-26" type="curve" smooth="yes"/>
      <point x="444" y="-26"/>
      <point x="644" y="161"/>
      <point x="674" y="379" type="curve" smooth="yes"/>
      <point x="818" y="1400" type="line"/>
      <point x="668" y="1400" type="line"/>
      <point x="526" y="388" type="line" smooth="yes"/>
      <point x="507" y="251"/>
      <point x="373" y="124"/>
      <point x="232" y="124" type="curve" smooth="yes"/>
      <point x="174" y="124"/>
      <point x="123" y="145"/>
      <point x="88" y="179" type="curve"/>
      <point x="-19" y="69" type="line"/>
      <point x="44" y="8"/>
      <point x="131" y="-26"/>
    </contour>
  </outline>
</glyph>
<glyph name="L" format="2">
  <advance width="1007.5"/>
  <unicode hex="004C"/>
  <outline>
    <contour>
      <point x="50" y="0" type="line"/>
      <point x="838" y="0" type="line"/>
      <point x="858" y="150" type="line"/>
      <point x="221" y="150" type="line"/>
      <point x="396" y="1400" type="line"/>
      <point x="246" y="1400" type="line"/>
    </contour>
  </outline>
</glyph>
<glyph name="U" format="2">
  <advance width="1329.25"/>
  <unicode hex="0055"/>
  <outline>
    <contour>
      <point x="599" y="-26" type="curve" smooth="yes"/>
      <point x="931" y="-26"/>
      <point x="1173" y="242"/>
      <point x="1221" y="580" type="curve" smooth="yes"/>
      <point x="1335" y="1400" type="line"/>
      <point x="1185" y="1400" type="line"/>
      <point x="1072" y="588" type="line" smooth="yes"/>
      <point x="1036" y="339"/>
      <point x="865" y="124"/>
      <point x="604" y="124" type="curve" smooth="yes"/>
      <point x="354" y="124"/>
      <point x="246" y="329"/>
      <point x="282" y="580" type="curve" smooth="yes"/>
      <point x="396" y="1400" type="line"/>
      <point x="246" y="1400" type="line"/>
      <point x="132" y="588" type="line" smooth="yes"/>
      <point x="85" y="250"/>
      <point x="259" y="-26"/>
    </contour>
  </outline>
</glyph>
<glyph name="W" format="2">
  <advance width="1805"/>
  <unicode hex="0057"/>
  <outline>
    <contour>
      <point x="389" y="0" type="line"/>
      <point x="564" y="0" type="line"/>
      <point x="982" y="1054" type="line"/>
      <point x="1103" y="0" type="line"/>
      <point x="1280" y="0" type="line"/>
      <point x="1832" y="1400" type="line"/>
      <point x="1676" y="1400" type="line"/>
      <point x="1225" y="261" type="line"/>
      <point x="1095" y="1400" type="line"/>
      <point x="961" y="1400" type="line"/>
      <point x="510" y="261" type="line"/>
      <point x="381" y="1400" type="line"/>
      <point x="227" y="1400" type="line"/>
    </contour>
  </outline>
</glyph>
<glyph name="bracketright" format="2">
  <advance width="549.25"/>
  <unicode hex="005D"/>
  <outline>
    <contour>
      <point x="14" y="-112" type="line"/>
      <point x="343" y="-112" type="line"/>
      <point x="555" y="1400" type="line"/>
      <point x="226" y="1400" type="line"/>
      <point x="205" y="1250" type="line"/>
      <point x="385" y="1250" type="line"/>
      <point x="214" y="38" type="line"/>
      <point x="35" y="38" type="line"/>
    </contour>
  </outline>
</glyph>
<glyph name="grave" format="2">
  <advance width="1030"/>
  <unicode hex="0060"/>
  <outline>
    <contour>
      <point x="452" y="1426" type="line"/>
      <point x="569" y="1138" type="line"/>
      <point x="639" y="1138" type="line"/>
      <point x="599" y="1426" type="line"/>
    </contour>
  </outline>
</glyph>
<glyph name="b" format="2">
  <advance width="1206.25"/>
  <unicode hex="0062"/>
  <outline>
    <contour>
      <point x="685" y="1028" type="curve"/>
      <point x="529" y="1028"/>
      <point x="399" y="948"/>
      <point x="313" y="824" type="curve"/>
      <point x="411" y="1500" type="line"/>
      <point x="261" y="1500" type="line"/>
      <point x="50" y="0" type="line"/>
      <point x="200" y="0" type="line"/>
      <point x="228" y="185" type="line"/>
      <point x="280" y="61"/>
      <point x="389" y="-26"/>
      <point x="554" y="-26" type="curve"/>
      <point x="841" y="-26"/>
      <point x="1105" y="206"/>
      <point x="1146" y="493" type="curve"/>
      <point x="1187" y="788"/>
      <point x="981" y="1028"/>
    </contour>
    <contour>
      <point x="556" y="120" type="curve"/>
      <point x="356" y="120"/>
      <point x="252" y="285"/>
      <point x="282" y="493" type="curve"/>
      <point x="311" y="705"/>
      <point x="469" y="883"/>
      <point x="680" y="883" type="curve"/>
      <point x="878" y="883"/>
      <point x="1024" y="719"/>
      <point x="994" y="509" type="curve"/>
      <point x="964" y="296"/>
      <point x="768" y="120"/>
    </contour>
  </outline>
</glyph>
<glyph name="j" format="2">
  <advance width="485.75"/>
  <unicode hex="006A"/>
  <outline>
    <contour>
      <point x="-221" y="-500" type="curve" smooth="yes"/>
      <point x="14" y="-500"/>
      <point x="209" y="-327"/>
      <point x="241" y="-107" type="curve"/>
      <point x="396" y="1000" type="line"/>
      <point x="246" y="1000" type="line"/>
      <point x="92" y="-99" type="line"/>
      <point x="72" y="-239"/>
      <point x="-59" y="-350"/>
      <point x="-199" y="-350" type="curve"/>
      <point x="-195" y="-350"/>
      <point x="-225" y="-500"/>
    </contour>
    <contour>
      <point x="352" y="1163" type="curve"/>
      <point x="394" y="1163"/>
      <point x="434" y="1196"/>
      <point x="439" y="1238" type="curve"/>
      <point x="447" y="1289"/>
      <point x="409" y="1331"/>
      <point x="360" y="1331" type="curve"/>
      <point x="317" y="1331"/>
      <point x="279" y="1297"/>
      <point x="273" y="1255" type="curve"/>
      <point x="266" y="1205"/>
      <point x="302" y="1163"/>
    </contour>
  </outline>
</glyph>
<glyph name="k" format="2">
  <advance width="1009.25"/>
  <unicode hex="006B"/>
  <outline>
    <contour>
      <point x="859" y="0" type="line"/>
      <point x="599" y="597" type="line"/>
      <point x="996" y="1000" type="line"/>
      <point x="797" y="1000" type="line"/>
      <point x="284" y="476" type="line"/>
      <point x="430" y="1500" type="line"/>
      <point x="280" y="1500" type="line"/>
      <point x="69" y="0" type="line"/>
      <point x="219" y="0" type="line"/>
      <point x="254" y="242" type="line"/>
      <point x="483" y="474" type="line"/>
      <point x="689" y="0" type="line"/>
    </contour>
  </outline>
</glyph>
<glyph name="q" format="2">
  <advance width="1225.5"/>
  <unicode hex="0071"/>
  <outline>
    <contour>
      <point x="540" y="-28" type="curve"/>
      <point x="697" y="-28"/>
      <point x="827" y="52"/>
      <point x="913" y="176" type="curve"/>
      <point x="815" y="-500" type="line"/>
      <point x="965" y="-500" type="line"/>
      <point x="1176" y="1000" type="line"/>
      <point x="1026" y="1000" type="line"/>
      <point x="997" y="815" type="line"/>
      <point x="946" y="939"/>
      <point x="838" y="1026"/>
      <point x="672" y="1026" type="curve"/>
      <point x="386" y="1026"/>
      <point x="121" y="794"/>
      <point x="81" y="508" type="curve"/>
      <point x="39" y="212"/>
      <point x="246" y="-28"/>
    </contour>
    <contour>
      <point x="669" y="881" type="curve"/>
      <point x="870" y="881"/>
      <point x="974" y="716"/>
      <point x="944" y="508" type="curve"/>
      <point x="914" y="295"/>
      <point x="758" y="118"/>
      <point x="546" y="118" type="curve"/>
      <point x="347" y="118"/>
      <point x="202" y="281"/>
      <point x="232" y="492" type="curve"/>
      <point x="262" y="705"/>
      <point x="457" y="881"/>
    </contour>
  </outline>
</glyph>
<glyph name="s" format="2">
  <advance width="880.25"/>
  <unicode hex="0073"/>
  <outline>
    <contour>
      <point x="373" y="-19" type="curve"/>
      <point x="564" y="-26"/>
      <point x="760" y="89"/>
      <point x="785" y="266" type="curve"/>
      <point x="811" y="439"/>
      <point x="651" y="514"/>
      <point x="473" y="571" type="curve" smooth="yes"/>
      <point x="348" y="615"/>
      <point x="246" y="626"/>
      <point x="261" y="730" type="curve"/>
      <point x="276" y="841"/>
      <point x="397" y="904"/>
      <point x="526" y="902" type="curve"/>
      <point x="620" y="899"/>
      <point x="716" y="851"/>
      <point x="740" y="773" type="curve"/>
      <point x="867" y="837" type="line"/>
      <point x="820" y="954"/>
      <point x="685" y="1034"/>
      <point x="518" y="1034" type="curve"/>
      <point x="331" y="1034"/>
      <point x="145" y="923"/>
      <point x="119" y="743" type="curve"/>
      <point x="95" y="567"/>
      <point x="237" y="495"/>
      <point x="444" y="440" type="curve" smooth="yes"/>
      <point x="546" y="408"/>
      <point x="660" y="383"/>
      <point x="646" y="281" type="curve"/>
      <point x="632" y="177"/>
      <point x="509" y="113"/>
      <point x="388" y="113" type="curve"/>
      <point x="284" y="113"/>
      <point x="173" y="172"/>
      <point x="152" y="248" type="curve"/>
      <point x="19" y="200" type="line"/>
      <point x="52" y="76"/>
      <point x="206" y="-14"/>
    </contour>
  </outline>
</glyph>
<glyph name="exclamdown" format="2">
  <advance width="343"/>
  <unicode hex="00A1"/>
  <outline>
    <contour>
      <point x="229" y="1026" type="curve"/>
      <point x="187" y="1026"/>
      <point x="149" y="993"/>
      <point x="143" y="949" type="curve"/>
      <point x="136" y="899"/>
      <point x="172" y="857"/>
      <point x="222" y="857" type="curve"/>
      <point x="265" y="857"/>
      <point x="303" y="890"/>
      <point x="309" y="932" type="curve"/>
      <point x="316" y="985"/>
      <point x="281" y="1026"/>
    </contour>
    <contour>
      <point x="240" y="580" type="line"/>
      <point x="109" y="580" type="line"/>
      <point x="-28" y="-400" type="line"/>
      <point x="103" y="-400" type="line"/>
    </contour>
  </outline>
</glyph>
<glyph name="cent" format="2">
  <advance width="1092"/>
  <unicode hex="00A2"/>
  <outline>
    <contour>
      <point x="453" y="0" type="line"/>
      <point x="566" y="0" type="line"/>
      <point x="598" y="202" type="line"/>
      <point x="759" y="218"/>
      <point x="907" y="306"/>
      <point x="1005" y="437" type="curve"/>
      <point x="882" y="518" type="line"/>
      <point x="805" y="417"/>
      <point x="675" y="348"/>
      <point x="553" y="348" type="curve" smooth="yes"/>
      <point x="366" y="348"/>
      <point x="230" y="500"/>
      <point x="257" y="694" type="curve" smooth="yes"/>
      <point x="285" y="892"/>
      <point x="471" y="1054"/>
      <point x="669" y="1054" type="curve" smooth="yes"/>
      <point x="783" y="1054"/>
      <point x="890" y="991"/>
      <point x="940" y="890" type="curve"/>
      <point x="1075" y="959" type="line"/>
      <point x="1013" y="1089"/>
      <point x="886" y="1183"/>
      <point x="730" y="1198" type="curve"/>
      <point x="763" y="1400" type="line"/>
      <point x="649" y="1400" type="line"/>
      <point x="618" y="1200" type="line"/>
      <point x="364" y="1171"/>
      <point x="145" y="963"/>
      <point x="110" y="710" type="curve" smooth="yes"/>
      <point x="73" y="449"/>
      <point x="241" y="233"/>
      <point x="486" y="204" type="curve"/>
    </contour>
  </outline>
</glyph>
<glyph name="section" format="2">
  <advance width="1078.5"/>
  <unicode hex="00A7"/>
  <outline>
    <contour>
      <point x="426" y="-399" type="curve" smooth="yes"/>
      <point x="614" y="-399"/>
      <point x="800" y="-287"/>
      <point x="825" y="-108" type="curve" smooth="yes"/>
      <point x="842" y="15"/>
      <point x="782" y="91"/>
      <point x="649" y="123" type="curve"/>
      <point x="810" y="181"/>
      <point x="935" y="329"/>
      <point x="957" y="491" type="curve" smooth="yes"/>
      <point x="992" y="741"/>
      <point x="848" y="886"/>
      <point x="605" y="938" type="curve" smooth="yes"/>
      <point x="474" y="969"/>
      <point x="379" y="991"/>
      <point x="394" y="1094" type="curve" smooth="yes"/>
      <point x="409" y="1205"/>
      <point x="531" y="1268"/>
      <point x="660" y="1267" type="curve" smooth="yes"/>
      <point x="753" y="1264"/>
      <point x="850" y="1215"/>
      <point x="874" y="1138" type="curve"/>
      <point x="1000" y="1201" type="line"/>
      <point x="953" y="1319"/>
      <point x="818" y="1399"/>
      <point x="652" y="1399" type="curve" smooth="yes"/>
      <point x="464" y="1399"/>
      <point x="279" y="1287"/>
      <point x="253" y="1108" type="curve" smooth="yes"/>
      <point x="236" y="984"/>
      <point x="296" y="908"/>
      <point x="429" y="877" type="curve"/>
      <point x="266" y="817"/>
      <point x="144" y="669"/>
      <point x="121" y="507" type="curve" smooth="yes"/>
      <point x="87" y="270"/>
      <point x="235" y="106"/>
      <point x="472" y="63" type="curve" smooth="yes"/>
      <point x="601" y="34"/>
      <point x="699" y="10"/>
      <point x="685" y="-94" type="curve" smooth="yes"/>
      <point x="669" y="-205"/>
      <point x="548" y="-268"/>
      <point x="418" y="-267" type="curve" smooth="yes"/>
      <point x="325" y="-264"/>
      <point x="229" y="-215"/>
      <point x="205" y="-138" type="curve"/>
      <point x="78" y="-201" type="line"/>
      <point x="126" y="-319"/>
      <point x="260" y="-399"/>
    </contour>
    <contour>
      <point x="495" y="211" type="curve" smooth="yes"/>
      <point x="347" y="211"/>
      <point x="232" y="332"/>
      <point x="254" y="491" type="curve" smooth="yes"/>
      <point x="277" y="653"/>
      <point x="427" y="789"/>
      <point x="580" y="789" type="curve" smooth="yes"/>
      <point x="729" y="789"/>
      <point x="848" y="682"/>
      <point x="823" y="503" type="curve" smooth="yes"/>
      <point x="801" y="348"/>
      <point x="652" y="211"/>
    </contour>
  </outline>
</glyph>
<glyph name="logicalnot" format="2">
  <advance width="977.5"/>
  <unicode hex="00AC"/>
  <outline>
    <contour>
      <point x="721" y="313" type="line"/>
      <point x="871" y="313" type="line"/>
      <point x="952" y="888" type="line"/>
      <point x="134" y="888" type="line"/>
      <point x="114" y="738" type="line"/>
      <point x="781" y="738" type="line"/>
    </contour>
  </outline>
</glyph>
<glyph name="threesuperior" format="2">
  <advance width="558"/>
  <unicode hex="00B3"/>
  <outline>
    <contour>
      <point x="330" y="798" type="curve"/>
      <point x="439" y="798"/>
      <point x="538" y="875"/>
      <point x="554" y="987" type="curve"/>
      <point x="565" y="1060"/>
      <point x="543" y="1106"/>
      <point x="500" y="1145" type="curve"/>
      <point x="540" y="1173"/>
      <point x="570" y="1227"/>
      <point x="577" y="1278" type="curve"/>
      <point x="593" y="1388"/>
      <point x="513" y="1467"/>
      <point x="402" y="1467" type="curve"/>
      <point x="301" y="1467"/>
      <point x="209" y="1397"/>
      <point x="195" y="1290" type="curve"/>
      <point x="301" y="1282" type="line"/>
      <point x="308" y="1328"/>
      <point x="355" y="1363"/>
      <point x="405" y="1363" type="curve"/>
      <point x="446" y="1363"/>
      <point x="477" y="1336"/>
      <point x="471" y="1294" type="curve"/>
      <point x="463" y="1234"/>
      <point x="413" y="1190"/>
      <point x="328" y="1190" type="curve"/>
      <point x="324" y="1106" type="line"/>
      <point x="417" y="1106"/>
      <point x="457" y="1063"/>
      <point x="449" y="1003" type="curve"/>
      <point x="440" y="944"/>
      <point x="387" y="902"/>
      <point x="328" y="902" type="curve"/>
      <point x="275" y="902"/>
      <point x="241" y="935"/>
      <point x="249" y="991" type="curve"/>
      <point x="143" y="999" type="line"/>
      <point x="126" y="884"/>
      <point x="212" y="798"/>
    </contour>
  </outline>
</glyph>
<glyph name="paragraph" format="2">
  <advance width="876"/>
  <unicode hex="00B6"/>
  <outline>
    <contour>
      <point x="307" y="-302" type="line"/>
      <point x="457" y="-302" type="line"/>
      <point x="696" y="1400" type="line"/>
      <point x="542" y="1400" type="line" smooth="yes"/>
      <point x="354" y="1400"/>
      <point x="185" y="1251"/>
      <point x="160" y="1067" type="curve" smooth="yes"/>
      <point x="132" y="874"/>
      <point x="267" y="718"/>
      <point x="455" y="718" type="curve"/>
    </contour>
    <contour>
      <point x="533" y="-302" type="line"/>
      <point x="683" y="-302" type="line"/>
      <point x="922" y="1400" type="line"/>
      <point x="772" y="1400" type="line"/>
    </contour>
  </outline>
</glyph>
<glyph name="Eth" format="2">
  <advance width="1457"/>
  <unicode hex="00D0"/>
  <outline>
    <contour>
      <point x="164" y="0" type="line"/>
      <point x="630" y="0" type="line" smooth="yes"/>
      <point x="1016" y="0"/>
      <point x="1370" y="310"/>
      <point x="1424" y="692" type="curve" smooth="yes"/>
      <point x="1478" y="1082"/>
      <point x="1205" y="1400"/>
      <point x="819" y="1400" type="curve" smooth="yes"/>
      <point x="360" y="1400" type="line"/>
      <point x="279" y="825" type="line"/>
      <point x="146" y="825" type="line"/>
      <point x="126" y="675" type="line"/>
      <point x="258" y="675" type="line"/>
    </contour>
    <contour>
      <point x="334" y="150" type="line"/>
      <point x="408" y="675" type="line"/>
      <point x="746" y="675" type="line"/>
      <point x="767" y="825" type="line"/>
      <point x="429" y="825" type="line"/>
      <point x="489" y="1250" type="line"/>
      <point x="807" y="1250" type="line" smooth="yes"/>
      <point x="1104" y="1250"/>
      <point x="1319" y="1012"/>
      <point x="1276" y="708" type="curve" smooth="yes"/>
      <point x="1234" y="406"/>
      <point x="951" y="150"/>
      <point x="643" y="150" type="curve" smooth="yes"/>
    </contour>
  </outline>
</glyph>
<glyph name="multiply" format="2">
  <advance width="973"/>
  <unicode hex="00D7"/>
  <outline>
    <contour>
      <point x="146" y="194" type="line"/>
      <point x="487" y="494" type="line"/>
      <point x="746" y="194" type="line"/>
      <point x="865" y="300" type="line"/>
      <point x="605" y="600" type="line"/>
      <point x="950" y="901" type="line"/>
      <point x="854" y="1006" type="line"/>
      <point x="512" y="706" type="line"/>
      <point x="254" y="1006" type="line"/>
      <point x="137" y="901" type="line"/>
      <point x="394" y="600" type="line"/>
      <point x="52" y="300" type="line"/>
    </contour>
  </outline>
</glyph>
<glyph name="Thorn" format="2">
  <advance width="1052.5"/>
  <unicode hex="00DE"/>
  <outline>
    <contour>
      <point x="50" y="0" type="line"/>
      <point x="200" y="0" type="line"/>
      <point x="241" y="290" type="line"/>
      <point x="548" y="290" type="line" smooth="yes"/>
      <point x="765" y="290"/>
      <point x="968" y="464"/>
      <point x="1000" y="692" type="curve" smooth="yes"/>
      <point x="1033" y="925"/>
      <point x="879" y="1111"/>
      <point x="655" y="1111" type="curve" smooth="yes"/>
      <point x="356" y="1111" type="line"/>
      <point x="396" y="1400" type="line"/>
      <point x="246" y="1400" type="line"/>
    </contour>
    <contour>
      <point x="261" y="440" type="line"/>
      <point x="337" y="977" type="line"/>
      <point x="632" y="977" type="line" smooth="yes"/>
      <point x="776" y="977"/>
      <point x="874" y="866"/>
      <point x="853" y="717" type="curve" smooth="yes"/>
      <point x="831" y="559"/>
      <point x="692" y="440"/>
      <point x="548" y="440" type="curve" smooth="yes"/>
    </contour>
  </outline>
</glyph>
<glyph name="igrave" format="2">
  <advance width="408"/>
  <unicode hex="00EC"/>
  <outline>
    <contour>
      <point x="207" y="1000" type="line"/>
      <point x="67" y="0" type="line"/>
      <point x="217" y="0" type="line"/>
      <point x="357" y="1000" type="line"/>
    </contour>
    <component base="grave" xOffset="-302"/>
  </outline>
</glyph>
<glyph name="iacute" format="2">
  <advance width="412"/>
  <unicode hex="00ED"/>
  <outline>
    <contour>
      <point x="190" y="1000" type="line"/>
      <point x="50" y="0" type="line"/>
      <point x="200" y="0" type="line"/>
      <point x="340" y="1000" type="line"/>
    </contour>
    <component base="acutecomb" xOffset="-321"/>
  </outline>
</glyph>
<glyph name="caron" format="2">
  <advance width="579.5"/>
  <unicode hex="02C7"/>
  <outline>
    <contour>
      <point x="316" y="1166" type="line"/>
      <point x="454" y="1166" type="line"/>
      <point x="587" y="1400" type="line"/>
      <point x="482" y="1400" type="line"/>
      <point x="392" y="1242" type="line"/>
      <point x="349" y="1400" type="line"/>
      <point x="248" y="1400" type="line"/>
    </contour>
  </outline>
</glyph>
<glyph name="dotaccentcomb" format="2">
  <unicode hex="0307"/>
  <outline>
    <contour>
      <point x="591" y="1190" type="curve" smooth="yes"/>
      <point x="633" y="1190"/>
      <point x="671" y="1221"/>
      <point x="677" y="1266" type="curve" smooth="yes"/>
      <point x="684" y="1318"/>
      <point x="648" y="1358"/>
      <point x="598" y="1358" type="curve" smooth="yes"/>
      <point x="553" y="1358"/>
      <point x="516" y="1326"/>
      <point x="510" y="1282" type="curve" smooth="yes"/>
      <point x="502" y="1230"/>
      <point x="538" y="1190"/>
    </contour>
  </outline>
</glyph>
<glyph name="emdash" format="2">
  <advance width="2040"/>
  <unicode hex="2014"/>
  <outline>
    <contour>
      <point x="144" y="675" type="line"/>
      <point x="124" y="525" type="line"/>
      <point x="1924" y="525" type="line"/>
      <point x="1944" y="675" type="line"/>
    </contour>
  </outline>
</glyph>
<glyph name="dagger" format="2">
  <advance width="796"/>
  <unicode hex="2020"/>
  <outline>
    <contour>
      <point x="163" y="1088" type="line"/>
      <point x="406" y="1088" type="line"/>
      <point x="335" y="585" type="line"/>
      <point x="485" y="585" type="line"/>
      <point x="556" y="1088" type="line"/>
      <point x="799" y="1088" type="line"/>
      <point x="819" y="1238" type="line"/>
      <point x="576" y="1238" type="line"/>
      <point x="614" y="1500" type="line"/>
      <point x="464" y="1500" type="line"/>
      <point x="426" y="1238" type="line"/>
      <point x="183" y="1238" type="line"/>
    </contour>
  </outline>
</glyph>
<glyph name="fraction" format="2">
  <advance width="942.5"/>
  <unicode hex="2044"/>
  <unicode hex="2215"/>
  <outline>
    <contour>
      <point x="-72" y="0" type="line"/>
      <point x="66" y="0" type="line"/>
      <point x="1071" y="1400" type="line"/>
      <point x="933" y="1400" type="line"/>
    </contour>
  </outline>
</glyph>
<glyph name="foursuperior" format="2">
  <advance width="682.25"/>
  <unicode hex="2074"/>
  <outline>
    <contour>
      <point x="406" y="818" type="line"/>
      <point x="514" y="818" type="line"/>
      <point x="530" y="937" type="line"/>
      <point x="600" y="937" type="line"/>
      <point x="615" y="1045" type="line"/>
      <point x="545" y="1045" type="line"/>
      <point x="602" y="1449" type="line"/>
      <point x="470" y="1449" type="line"/>
      <point x="174" y="1067" type="line"/>
      <point x="157" y="937" type="line"/>
      <point x="422" y="937" type="line"/>
    </contour>
    <contour>
      <point x="284" y="1045" type="line"/>
      <point x="482" y="1301" type="line"/>
      <point x="444" y="1045" type="line"/>
    </contour>
  </outline>
</glyph>
<glyph name="eightsuperior" format="2">
  <advance width="609.125"/>
  <unicode hex="2078"/>
  <outline>
    <contour>
      <point x="354" y="798" type="curve" smooth="yes"/>
      <point x="466" y="798"/>
      <point x="566" y="873"/>
      <point x="582" y="985" type="curve" smooth="yes"/>
      <point x="591" y="1053"/>
      <point x="567" y="1110"/>
      <point x="529" y="1144" type="curve"/>
      <point x="573" y="1181"/>
      <point x="600" y="1229"/>
      <point x="607" y="1277" type="curve" smooth="yes"/>
      <point x="623" y="1389"/>
      <point x="543" y="1469"/>
      <point x="431" y="1469" type="curve" smooth="yes"/>
      <point x="329" y="1469"/>
      <point x="237" y="1398"/>
      <point x="222" y="1294" type="curve" smooth="yes"/>
      <point x="215" y="1238"/>
      <point x="234" y="1187"/>
      <point x="263" y="1156" type="curve"/>
      <point x="209" y="1116"/>
      <point x="175" y="1061"/>
      <point x="167" y="1001" type="curve" smooth="yes"/>
      <point x="150" y="882"/>
      <point x="236" y="798"/>
    </contour>
    <contour>
      <point x="352" y="901" type="curve" smooth="yes"/>
      <point x="301" y="901"/>
      <point x="265" y="934"/>
      <point x="272" y="985" type="curve" smooth="yes"/>
      <point x="281" y="1044"/>
      <point x="337" y="1093"/>
      <point x="395" y="1093" type="curve" smooth="yes"/>
      <point x="448" y="1093"/>
      <point x="483" y="1052"/>
      <point x="476" y="1001" type="curve" smooth="yes"/>
      <point x="468" y="943"/>
      <point x="412" y="901"/>
    </contour>
    <contour>
      <point x="394" y="1201" type="curve" smooth="yes"/>
      <point x="352" y="1201"/>
      <point x="323" y="1235"/>
      <point x="328" y="1277" type="curve" smooth="yes"/>
      <point x="335" y="1329"/>
      <point x="383" y="1365"/>
      <point x="433" y="1365" type="curve" smooth="yes"/>
      <point x="477" y="1365"/>
      <point x="508" y="1338"/>
      <point x="501" y="1294" type="curve" smooth="yes"/>
      <point x="495" y="1244"/>
      <point x="446" y="1201"/>
    </contour>
  </outline>
</glyph>
<glyph name="oneinferior" format="2">
  <advance width="425.375"/>
  <unicode hex="2081"/>
  <outline>
    <contour>
      <point x="103" y="0" type="line"/>
      <point x="211" y="0" type="line"/>
      <point x="299" y="631" type="line"/>
      <point x="129" y="631" type="line"/>
      <point x="99" y="523" type="line"/>
      <point x="177" y="523" type="line"/>
    </contour>
  </outline>
</glyph>
<glyph name="threeinferior" format="2">
  <advance width="558"/>
  <unicode hex="2083"/>
  <outline>
    <contour>
      <point x="214" y="-31" type="curve" smooth="yes"/>
      <point x="322" y="-31"/>
      <point x="423" y="51"/>
      <point x="438" y="161" type="curve" smooth="yes"/>
      <point x="449" y="235"/>
      <point x="427" y="280"/>
      <point x="384" y="320" type="curve"/>
      <point x="424" y="349"/>
      <point x="454" y="401"/>
      <point x="461" y="453" type="curve" smooth="yes"/>
      <point x="477" y="563"/>
      <point x="398" y="646"/>
      <point x="287" y="646" type="curve" smooth="yes"/>
      <point x="185" y="646"/>
      <point x="94" y="571"/>
      <point x="78" y="466" type="curve"/>
      <point x="185" y="457" type="line"/>
      <point x="191" y="503"/>
      <point x="240" y="538"/>
      <point x="289" y="538" type="curve" smooth="yes"/>
      <point x="331" y="538"/>
      <point x="362" y="511"/>
      <point x="356" y="470" type="curve" smooth="yes"/>
      <point x="347" y="410"/>
      <point x="297" y="365"/>
      <point x="212" y="365" type="curve"/>
      <point x="209" y="280" type="line"/>
      <point x="300" y="280"/>
      <point x="341" y="237"/>
      <point x="333" y="178" type="curve" smooth="yes"/>
      <point x="325" y="118"/>
      <point x="271" y="77"/>
      <point x="212" y="77" type="curve" smooth="yes"/>
      <point x="160" y="77"/>
      <point x="125" y="110"/>
      <point x="133" y="165" type="curve"/>
      <point x="26" y="174" type="line"/>
      <point x="10" y="59"/>
      <point x="95" y="-31"/>
    </contour>
  </outline>
</glyph>
<glyph name="northWestArrow" format="2">
  <advance width="1072"/>
  <unicode hex="2196"/>
  <outline>
    <contour>
      <point x="860" y="295" type="line"/>
      <point x="978" y="400" type="line"/>
      <point x="413" y="1055" type="line"/>
      <point x="863" y="1055" type="line"/>
      <point x="884" y="1205" type="line"/>
      <point x="179" y="1205" type="line"/>
      <point x="80" y="500" type="line"/>
      <point x="230" y="500" type="line"/>
      <point x="295" y="950" type="line"/>
    </contour>
  </outline>
</glyph>
<glyph name="product" format="2">
  <advance width="1280"/>
  <unicode hex="220F"/>
  <outline>
    <contour>
      <point x="206" y="1400" type="line"/>
      <point x="185" y="1250" type="line"/>
      <point x="1305" y="1250" type="line"/>
      <point x="1326" y="1400" type="line"/>
    </contour>
    <contour>
      <point x="377" y="1300" type="line"/>
      <point x="195" y="0" type="line"/>
      <point x="345" y="0" type="line"/>
      <point x="527" y="1300" type="line"/>
    </contour>
    <contour>
      <point x="977" y="1300" type="line"/>
      <point x="795" y="0" type="line"/>
      <point x="945" y="0" type="line"/>
      <point x="1127" y="1300" type="line"/>
    </contour>
  </outline>
</glyph>
<glyph name="minus" format="2">
  <advance width="1160"/>
  <unicode hex="2212"/>
  <outline>
    <contour>
      <point x="84" y="525" type="line"/>
      <point x="1084" y="525" type="line"/>
      <point x="1104" y="675" type="line"/>
      <point x="104" y="675" type="line"/>
    </contour>
  </outline>
</glyph>
<glyph name="notequal" format="2">
  <advance width="1160"/>
  <unicode hex="2260"/>
  <outline>
    <contour>
      <point x="924" y="1182" type="line"/>
      <point x="766" y="1182" type="line"/>
      <point x="635" y="878" type="line"/>
      <point x="133" y="878" type="line"/>
      <point x="112" y="728" type="line"/>
      <point x="570" y="728" type="line"/>
      <point x="458" y="472" type="line"/>
      <point x="76" y="472" type="line"/>
      <point x="55" y="322" type="line"/>
      <point x="394" y="322" type="line"/>
      <point x="262" y="18" type="line"/>
      <point x="420" y="18" type="line"/>
      <point x="552" y="322" type="line"/>
      <point x="1055" y="322" type="line"/>
      <point x="1076" y="472" type="line"/>
      <point x="618" y="472" type="line"/>
      <point x="728" y="728" type="line"/>
      <point x="1112" y="728" type="line"/>
      <point x="1133" y="878" type="line"/>
      <point x="794" y="878" type="line"/>
    </contour>
  </outline>
</glyph>
